<svg width="155" height="155" viewBox="0 0 155 155" fill="none" xmlns="http://www.w3.org/2000/svg">
<path d="M112.584 46.688V134.24H121.928V46.688H112.584ZM72.136 44V52.832H133.832V44H72.136ZM69.576 77.408V86.24H135.88V77.408H69.576ZM75.848 19.936C80.584 27.488 85.32 37.728 87.112 44.128L95.432 40.672C93.768 34.144 88.776 24.288 83.656 16.736L75.848 19.936ZM120.264 16.48C117.96 24.032 113.352 34.656 109.64 41.312L117.576 44C121.416 37.728 126.152 27.744 129.992 19.296L120.264 16.48ZM84.424 46.688V82.144C84.424 97.376 82.632 115.808 66.504 128.736C68.552 129.888 72.264 132.96 73.8 134.624C90.952 120.8 93.64 99.168 93.64 82.272V46.688H84.424ZM25.672 53.856V134.112H33.864V53.856H25.672ZM30.408 68.576V74.848H61.128V68.576H30.408ZM34.12 39.52V46.56H59.464V39.52H34.12ZM30.152 97.888V105.312H65.096V97.888H30.152ZM30.408 113.888V121.568H66.248V113.888H30.408ZM30.536 53.856V60.64H57.288V83.168H30.536V89.952H65.224V53.856H30.536ZM40.008 16.608C35.528 26.464 27.08 38.752 15.304 47.84C17.352 48.992 20.168 51.68 21.576 53.6C34.248 43.232 42.696 30.432 47.688 21.216V18.656H45V16.608H40.008ZM42.824 16.608V22.624H44.36C51.784 29.28 60.36 40.032 64.712 46.432L70.6 39.904C66.12 33.376 57.032 23.52 49.352 16.608H42.824Z" fill="#F65A83"/>
</svg>
